<svg width="30" height="30" viewBox="0 0 30 30" fill="none" xmlns="http://www.w3.org/2000/svg">
<path d="M23.4938 15.4125C23.7571 15.6762 23.905 16.0336 23.905 16.4063C23.905 16.7789 23.7571 17.1363 23.4938 17.4L15.525 25.3688C15.2613 25.6321 14.9039 25.78 14.5313 25.78C14.1586 25.78 13.8012 25.6321 13.5375 25.3688L5.56877 17.4C5.3205 17.1333 5.18531 16.7807 5.1916 16.4163C5.19789 16.052 5.34519 15.7043 5.60252 15.4463C5.86052 15.1889 6.20824 15.0416 6.57259 15.0354C6.93693 15.0291 7.28953 15.1643 7.55627 15.4125L13.125 20.9813L13.125 7.03127C13.125 6.65831 13.2732 6.30062 13.5369 6.0369C13.8006 5.77318 14.1583 5.62502 14.5313 5.62502C14.9042 5.62502 15.2619 5.77318 15.5256 6.0369C15.7894 6.30062 15.9375 6.6583 15.9375 7.03127L15.9375 20.9813L21.5063 15.4125C21.7699 15.1492 22.1274 15.0013 22.5 15.0013C22.8727 15.0013 23.2301 15.1492 23.4938 15.4125Z" fill="black"/>
</svg>
