<svg width="80" height="78" viewBox="0 0 80 78" fill="none" xmlns="http://www.w3.org/2000/svg">
<path d="M40.0001 6.5C58.4001 6.5 73.3334 21.06 73.3334 39C73.3334 56.94 58.4001 71.5 40.0001 71.5C21.6001 71.5 6.66675 56.94 6.66675 39C6.66675 21.06 21.6001 6.5 40.0001 6.5ZM20.0778 50.103C24.9695 57.2224 32.3171 61.75 40.5324 61.75C48.7477 61.75 56.0954 57.2224 60.9871 50.103C55.6284 45.2309 48.4374 42.25 40.5324 42.25C32.6274 42.25 25.4366 45.2309 20.0778 50.103ZM40.0001 35.75C45.5231 35.75 50.0001 31.3848 50.0001 26C50.0001 20.6152 45.5231 16.25 40.0001 16.25C34.4771 16.25 30.0001 20.6152 30.0001 26C30.0001 31.3848 34.4771 35.75 40.0001 35.75Z" fill="white"/>
</svg>
