<svg width="32" height="32" viewBox="0 0 32 32" fill="none" xmlns="http://www.w3.org/2000/svg">
<path d="M16 2.66669C19.6226 2.66669 20.0746 2.68002 21.496 2.74669C22.916 2.81335 23.8826 3.03602 24.7333 3.36669C25.6133 3.70535 26.3546 4.16402 27.096 4.90402C27.774 5.57055 28.2986 6.37681 28.6333 7.26669C28.9626 8.11602 29.1866 9.08402 29.2533 10.504C29.316 11.9254 29.3333 12.3774 29.3333 16C29.3333 19.6227 29.32 20.0747 29.2533 21.496C29.1866 22.916 28.9626 23.8827 28.6333 24.7334C28.2995 25.6237 27.7748 26.4302 27.096 27.096C26.4292 27.7738 25.623 28.2984 24.7333 28.6334C23.884 28.9627 22.916 29.1867 21.496 29.2534C20.0746 29.316 19.6226 29.3334 16 29.3334C12.3773 29.3334 11.9253 29.32 10.504 29.2534C9.08396 29.1867 8.11729 28.9627 7.26663 28.6334C6.37639 28.2993 5.57 27.7746 4.90396 27.096C4.22583 26.4296 3.7012 25.6233 3.36663 24.7334C3.03596 23.884 2.81329 22.916 2.74663 21.496C2.68396 20.0747 2.66663 19.6227 2.66663 16C2.66663 12.3774 2.67996 11.9254 2.74663 10.504C2.81329 9.08269 3.03596 8.11735 3.36663 7.26669C3.70027 6.37626 4.22503 5.56978 4.90396 4.90402C5.57019 4.22566 6.37653 3.70099 7.26663 3.36669C8.11729 3.03602 9.08263 2.81335 10.504 2.74669C11.9253 2.68402 12.3773 2.66669 16 2.66669ZM16 9.33335C14.2318 9.33335 12.5362 10.0357 11.2859 11.286C10.0357 12.5362 9.33329 14.2319 9.33329 16C9.33329 17.7681 10.0357 19.4638 11.2859 20.7141C12.5362 21.9643 14.2318 22.6667 16 22.6667C17.7681 22.6667 19.4638 21.9643 20.714 20.7141C21.9642 19.4638 22.6666 17.7681 22.6666 16C22.6666 14.2319 21.9642 12.5362 20.714 11.286C19.4638 10.0357 17.7681 9.33335 16 9.33335ZM24.6666 9.00002C24.6666 8.55799 24.491 8.13407 24.1785 7.82151C23.8659 7.50895 23.442 7.33335 23 7.33335C22.5579 7.33335 22.134 7.50895 21.8214 7.82151C21.5089 8.13407 21.3333 8.55799 21.3333 9.00002C21.3333 9.44205 21.5089 9.86597 21.8214 10.1785C22.134 10.4911 22.5579 10.6667 23 10.6667C23.442 10.6667 23.8659 10.4911 24.1785 10.1785C24.491 9.86597 24.6666 9.44205 24.6666 9.00002ZM16 12C17.0608 12 18.0782 12.4214 18.8284 13.1716C19.5785 13.9217 20 14.9392 20 16C20 17.0609 19.5785 18.0783 18.8284 18.8284C18.0782 19.5786 17.0608 20 16 20C14.9391 20 13.9217 19.5786 13.1715 18.8284C12.4214 18.0783 12 17.0609 12 16C12 14.9392 12.4214 13.9217 13.1715 13.1716C13.9217 12.4214 14.9391 12 16 12Z" fill="white"/>
</svg>
