<svg width="60" height="60" viewBox="0 0 60 60" fill="none" xmlns="http://www.w3.org/2000/svg">
<path d="M30 5C43.8 5 55 16.2 55 30C55 43.8 43.8 55 30 55C16.2 55 5 43.8 5 30C5 16.2 16.2 5 30 5ZM15.0583 38.5407C18.7271 44.0173 24.2378 47.5 30.3993 47.5C36.5608 47.5 42.0715 44.0173 45.7402 38.5407C41.7213 34.793 36.328 32.5 30.3993 32.5C24.4705 32.5 19.0774 34.793 15.0583 38.5407ZM30 27.5C34.1423 27.5 37.5 24.1421 37.5 20C37.5 15.8579 34.1423 12.5 30 12.5C25.8577 12.5 22.5 15.8579 22.5 20C22.5 24.1421 25.8577 27.5 30 27.5Z" fill="#3DA9FC"/>
</svg>
